<svg width="42" height="46" viewBox="0 0 42 46" fill="none" xmlns="http://www.w3.org/2000/svg">
<path d="M39.75 14.75H34.5V7.25C34.4982 6.65381 34.2606 6.08255 33.839 5.66098C33.4175 5.2394 32.8462 5.00178 32.25 5H24.75V4.25C24.7482 3.65381 24.5106 3.08255 24.089 2.66098C23.6675 2.23941 23.0962 2.00178 22.5 2H21V1.25C21 1.05109 20.921 0.860322 20.7803 0.71967C20.6397 0.579018 20.4489 0.5 20.25 0.5H14.25C14.0511 0.5 13.8603 0.579018 13.7197 0.71967C13.579 0.860322 13.5 1.05109 13.5 1.25V2H12C11.4038 2.00178 10.8325 2.23941 10.411 2.66098C9.9894 3.08255 9.75178 3.65381 9.75 4.25V5H2.25C1.65381 5.00178 1.08255 5.2394 0.660977 5.66098C0.239405 6.08255 0.00178057 6.65381 0 7.25V43.25C0.00178057 43.8462 0.239405 44.4175 0.660977 44.839C1.08255 45.2606 1.65381 45.4982 2.25 45.5H32.25C32.8462 45.4982 33.4175 45.2606 33.839 44.839C34.2606 44.4175 34.4982 43.8462 34.5 43.25V37.25H39.75C40.3462 37.2482 40.9175 37.0106 41.339 36.589C41.7606 36.1675 41.9982 35.5962 42 35V17C41.9982 16.4038 41.7606 15.8325 41.339 15.411C40.9175 14.9894 40.3462 14.7518 39.75 14.75ZM21 3.5H22.5C22.6989 3.5 22.8897 3.57902 23.0303 3.71967C23.171 3.86032 23.25 4.05109 23.25 4.25V5H21V3.5ZM21 6.5H32.25C32.4489 6.5 32.6397 6.57902 32.7803 6.71967C32.921 6.86032 33 7.05109 33 7.25V14.75H32.25V8C32.25 7.80109 32.171 7.61032 32.0303 7.46967C31.8897 7.32902 31.6989 7.25 31.5 7.25H21V6.5ZM15 2H19.5V8C19.5 8.19891 19.421 8.38968 19.2803 8.53033C19.1397 8.67098 18.9489 8.75 18.75 8.75H15.75C15.5511 8.75 15.3603 8.67098 15.2197 8.53033C15.079 8.38968 15 8.19891 15 8V2ZM13.635 8.75C13.7907 9.18706 14.0772 9.56554 14.4557 9.83393C14.8341 10.1023 15.2861 10.2476 15.75 10.25H18.75C19.2139 10.2476 19.6659 10.1023 20.0443 9.83393C20.4228 9.56554 20.7093 9.18706 20.865 8.75H30.75V14.75H27.75C27.1538 14.7518 26.5825 14.9894 26.161 15.411C25.7394 15.8325 25.5018 16.4038 25.5 17V35C25.5018 35.5962 25.7394 36.1675 26.161 36.589C26.5825 37.0106 27.1538 37.2482 27.75 37.25H30.75V41.75H3.75V8.75H13.635ZM11.25 4.25C11.25 4.05109 11.329 3.86032 11.4697 3.71967C11.6103 3.57902 11.8011 3.5 12 3.5H13.5V5H11.25V4.25ZM33 43.25C33 43.4489 32.921 43.6397 32.7803 43.7803C32.6397 43.921 32.4489 44 32.25 44H2.25C2.05109 44 1.86032 43.921 1.71967 43.7803C1.57902 43.6397 1.5 43.4489 1.5 43.25V7.25C1.5 7.05109 1.57902 6.86032 1.71967 6.71967C1.86032 6.57902 2.05109 6.5 2.25 6.5H13.5V7.25H3C2.80109 7.25 2.61032 7.32902 2.46967 7.46967C2.32902 7.61032 2.25 7.80109 2.25 8V42.5C2.25 42.6989 2.32902 42.8897 2.46967 43.0303C2.61032 43.171 2.80109 43.25 3 43.25H31.5C31.6989 43.25 31.8897 43.171 32.0303 43.0303C32.171 42.8897 32.25 42.6989 32.25 42.5V37.25H33V43.25ZM40.5 35C40.5 35.1989 40.421 35.3897 40.2803 35.5303C40.1397 35.671 39.9489 35.75 39.75 35.75H27.75C27.5511 35.75 27.3603 35.671 27.2197 35.5303C27.079 35.3897 27 35.1989 27 35V17C27 16.8011 27.079 16.6103 27.2197 16.4697C27.3603 16.329 27.5511 16.25 27.75 16.25H39.75C39.9489 16.25 40.1397 16.329 40.2803 16.4697C40.421 16.6103 40.5 16.8011 40.5 17V35Z" fill="#2D66EE"/>
</svg>
