<svg width="111" height="16" viewBox="0 0 111 16" fill="none" xmlns="http://www.w3.org/2000/svg">
<path d="M3.33949 0.454545V15H0.264205V0.454545H3.33949ZM5.1617 2.99006V0.454545H17.1077V2.99006H12.6546V15H9.61482V2.99006H5.1617ZM26.6701 15L22.5082 0.454545H25.8675L28.2752 10.5611H28.396L31.0522 0.454545H33.9286L36.5778 10.5824H36.7056L39.1133 0.454545H42.4727L38.3107 15H35.3136L32.5437 5.49006H32.43L29.6673 15H26.6701ZM43.9646 15V0.454545H53.7657V2.99006H47.0399V6.45597H53.2615V8.99148H47.0399V12.4645H53.7942V15H43.9646ZM56.0567 15V0.454545H61.8806C62.9506 0.454545 63.8432 0.613163 64.5581 0.930398C65.2731 1.24763 65.8105 1.68797 66.1703 2.25142C66.5302 2.81013 66.7101 3.45407 66.7101 4.18324C66.7101 4.75142 66.5965 5.25095 66.3692 5.68182C66.1419 6.10795 65.8294 6.45833 65.4317 6.73295C65.0387 7.00284 64.5889 7.1946 64.0823 7.30824V7.45028C64.6362 7.47396 65.1547 7.63021 65.6377 7.91903C66.1254 8.20786 66.5207 8.61269 66.8237 9.13352C67.1268 9.64962 67.2783 10.2652 67.2783 10.9801C67.2783 11.7519 67.0865 12.4408 66.703 13.0469C66.3242 13.6482 65.7631 14.1241 65.0198 14.4744C64.2764 14.8248 63.3602 15 62.2712 15H56.0567ZM59.132 12.4858H61.6391C62.4961 12.4858 63.1211 12.3224 63.5141 11.9957C63.9071 11.6643 64.1036 11.224 64.1036 10.6747C64.1036 10.2723 64.0065 9.91714 63.8124 9.60938C63.6183 9.30161 63.3413 9.06013 62.9814 8.88494C62.6263 8.70975 62.2025 8.62216 61.7101 8.62216H59.132V12.4858ZM59.132 6.54119H61.4118C61.8332 6.54119 62.2073 6.4678 62.534 6.32102C62.8654 6.16951 63.1258 5.95644 63.3152 5.68182C63.5094 5.4072 63.6064 5.07812 63.6064 4.6946C63.6064 4.16903 63.4194 3.74527 63.0453 3.4233C62.676 3.10133 62.1505 2.94034 61.4686 2.94034H59.132V6.54119ZM77.016 4.63778C76.9592 4.06487 76.7153 3.61979 76.2844 3.30256C75.8536 2.98532 75.2688 2.8267 74.5302 2.8267C74.0283 2.8267 73.6045 2.89773 73.2589 3.03977C72.9132 3.17708 72.6481 3.36884 72.4634 3.61506C72.2835 3.86127 72.1935 4.14062 72.1935 4.45312C72.1841 4.71354 72.2385 4.94081 72.3569 5.13494C72.48 5.32907 72.6481 5.49716 72.8612 5.6392C73.0742 5.77651 73.3204 5.89725 73.5998 6.00142C73.8791 6.10085 74.1774 6.18608 74.4947 6.2571L75.8015 6.5696C76.436 6.71165 77.0183 6.90104 77.5487 7.13778C78.079 7.37453 78.5382 7.66572 78.9265 8.01136C79.3148 8.35701 79.6154 8.7642 79.8285 9.23295C80.0463 9.7017 80.1576 10.2391 80.1623 10.8452C80.1576 11.7353 79.9303 12.5071 79.4805 13.1605C79.0354 13.8092 78.3915 14.3134 77.5487 14.6733C76.7106 15.0284 75.6997 15.206 74.516 15.206C73.3417 15.206 72.319 15.026 71.4478 14.6662C70.5813 14.3063 69.9042 13.7737 69.4166 13.0682C68.9336 12.358 68.6803 11.4796 68.6566 10.4332H71.6325C71.6656 10.9209 71.8053 11.3281 72.0515 11.6548C72.3024 11.9768 72.6362 12.2206 73.0529 12.3864C73.4743 12.5473 73.9502 12.6278 74.4805 12.6278C75.0013 12.6278 75.4535 12.5521 75.837 12.4006C76.2253 12.2491 76.5259 12.0384 76.739 11.7685C76.9521 11.4986 77.0586 11.1884 77.0586 10.8381C77.0586 10.5114 76.9615 10.2367 76.7674 10.0142C76.578 9.79167 76.2987 9.60227 75.9293 9.44602C75.5648 9.28977 75.1173 9.14773 74.587 9.01989L73.0032 8.62216C71.7769 8.32386 70.8086 7.85748 70.0984 7.22301C69.3881 6.58854 69.0354 5.7339 69.0401 4.65909C69.0354 3.77841 69.2698 3.009 69.7433 2.35085C70.2215 1.69271 70.8773 1.17898 71.7106 0.809659C72.5439 0.44034 73.4909 0.255681 74.5515 0.255681C75.631 0.255681 76.5733 0.44034 77.3782 0.809659C78.1879 1.17898 78.8176 1.69271 79.2674 2.35085C79.7172 3.009 79.9492 3.77131 79.9634 4.63778H77.016ZM85.1521 0.454545V15H82.0768V0.454545H85.1521ZM86.9743 2.99006V0.454545H98.9203V2.99006H94.4672V15H91.4274V2.99006H86.9743ZM100.734 15V0.454545H110.535V2.99006H103.809V6.45597H110.031V8.99148H103.809V12.4645H110.563V15H100.734Z" fill="#2D66EE"/>
</svg>
